<svg width="276" height="74" fill="none" xmlns="http://www.w3.org/2000/svg"><path d="M37.89 6.566c.95.066 1.62.417 2.01 1.055.392.625.6 1.367.626 2.227.026.859-.02 1.653-.137 2.382a67.996 67.996 0 0 1-1.992 8.555c-.052.182-.104.371-.156.567a782.612 782.612 0 0 1-1.504 5.195 402.77 402.77 0 0 0-2.871 10.098l.722.078c.196.052.313.156.352.312a.425.425 0 0 1-.059.41c-.09.13-.234.183-.43.157-.273-.052-.54-.098-.8-.137a141.47 141.47 0 0 0-1.309 5.273 100.52 100.52 0 0 0-1.738 9.883 32.886 32.886 0 0 0 .273 9.98c.13.574.293 1.127.489 1.66.09.274.084.528-.02.762a.957.957 0 0 1-1.328.45.953.953 0 0 1-.508-.606 19.632 19.632 0 0 1-.41-1.933 30.23 30.23 0 0 1-.176-6.602c.183-2.2.47-4.382.86-6.543a157.74 157.74 0 0 1 2.851-12.5 77.904 77.904 0 0 0-13.828-.957 4705.002 4705.002 0 0 1-7.383 10.45c-2.33 3.307-4.257 6.034-5.78 8.183l-2.267 3.242c-.273.326-.579.456-.918.39a1 1 0 0 1-.742-.527c-.169-.286-.143-.618.078-.996.118-.182 1.582-2.265 4.395-6.25 2.812-3.984 6.204-8.795 10.176-14.433-.899.039-1.797.09-2.696.156a39.5 39.5 0 0 0-8.593 1.582c-.47.104-.82.013-1.055-.273a1.104 1.104 0 0 1-.215-.958c.091-.364.378-.592.86-.683 4.088-.417 8.183-.632 12.285-.645 1.575-2.252 3.157-4.505 4.746-6.758 4.153-5.885 7.721-10.944 10.703-15.175 2.995-4.245 4.564-6.472 4.707-6.68.208-.26.469-.39.781-.39Zm-.821 14.454c.026-.092.058-.215.097-.372.222-.859.521-2.154.899-3.886.378-1.732.632-3.399.762-5 .143-1.602-.026-2.637-.508-3.106-.39.534-2.435 3.425-6.133 8.672A20023.2 20023.2 0 0 0 19.334 35.59c4.519.065 9.024.37 13.516.918.56-2.07 1.126-4.134 1.7-6.192a443.363 443.363 0 0 0 2.519-9.296ZM87.186 4.085a475.859 475.859 0 0 0-5.02 10.312c-1.028 2.149-2.057 4.29-3.085 6.426a112.74 112.74 0 0 0-3.594 17.52c-.73 5.911-.983 11.009-.762 15.293.091 1.823.267 3.691.527 5.605.274 1.914.73 3.763 1.368 5.547a15.355 15.355 0 0 0 2.812 4.805c.182.221.228.443.137.664a.704.704 0 0 1-.45.469c-.22.09-.449.032-.683-.176a12.843 12.843 0 0 1-1.426-1.836c-1.77-3.047-2.903-6.888-3.398-11.524-.495-4.622-.495-9.596 0-14.922a117.685 117.685 0 0 1 2.558-15.644c-1.38 2.747-2.8 5.475-4.257 8.184a130.58 130.58 0 0 1-4.649 7.949c-.117.17-.24.345-.37.527a47.756 47.756 0 0 1-2.208 3.106c-.885 1.159-1.842 2.122-2.871 2.89-1.029.769-2.057 1.035-3.086.801-.495-.195-.82-.645-.977-1.348-.156-.69-.227-1.465-.214-2.324.026-.846.078-1.608.156-2.285.026-.325.045-.599.058-.82.313-2.904.704-5.788 1.172-8.653.274-1.823.567-3.652.88-5.488.416-2.396.793-4.792 1.132-7.187.352-2.41.593-4.831.723-7.266.013-.156.026-.326.039-.508.026-.3.039-.586.039-.86 0-.273-.046-.468-.137-.585-1.042-.43-2.129-.26-3.262.508-1.12.768-2.226 1.907-3.32 3.418a45.439 45.439 0 0 0-3.047 4.863 90.91 90.91 0 0 0-2.46 4.902c-.69 1.51-1.205 2.67-1.544 3.477a217.597 217.597 0 0 0-8.086 22.695c-.09.247-.254.39-.488.43a.682.682 0 0 1-.605-.137c-.183-.13-.26-.332-.235-.605l.117-.801c.078-.521.17-1.166.274-1.934l.351-2.304c.118-.756.215-1.4.293-1.934l.118-.781a304.81 304.81 0 0 0 1.035-7.715c.312-2.578.547-5.163.703-7.754.143-2.578.104-5.15-.117-7.715 0-.3.104-.508.312-.625a.75.75 0 0 1 .645-.058c.234.078.37.266.41.566a70.897 70.897 0 0 1-.196 12.207 203.76 203.76 0 0 1-1.581 12.227 271.143 271.143 0 0 1 6.367-16.075 127.828 127.828 0 0 1 3.574-7.52 52.486 52.486 0 0 1 4.394-7.109 15.877 15.877 0 0 1 1.836-2.09 7.123 7.123 0 0 1 2.344-1.503c.846-.326 1.745-.313 2.695.039l.137.097c.091.052.208.163.352.332.143.17.286.424.43.762.143.339.28.781.41 1.328a10.17 10.17 0 0 1 0 3.203 7.745 7.745 0 0 0-.059.547 147.651 147.651 0 0 1-1.621 10.488c-.065.352-.13.697-.195 1.036-.183.99-.372 2.018-.567 3.086A205.1 205.1 0 0 0 59.16 43.46a25.514 25.514 0 0 0-.274 4.219c.013.221.04.442.078.664.04.221.105.41.196.566 1.107.052 2.383-.696 3.828-2.246 1.458-1.536 3.001-3.62 4.629-6.25 1.64-2.63 3.287-5.547 4.941-8.75a306.547 306.547 0 0 0 4.824-9.727c1.758-6.21 3.757-11.217 5.996-15.019a19.325 19.325 0 0 1 2.696-3.613.673.673 0 0 1 .488-.215c.182 0 .345.065.488.195.222.248.267.514.137.8Zm.077 27.754v-3.12h9.68v3.12h-9.68Zm49.396 12.265c.091-.533.325-.846.703-.937.39-.091.735-.007 1.035.254.299.273.358.664.176 1.172-1.393 2.33-3.262 4.661-5.606 6.992-2.33 2.33-4.941 4.453-7.832 6.367-2.877 1.914-5.833 3.405-8.867 4.473-3.034 1.08-5.95 1.523-8.75 1.328a13.616 13.616 0 0 1-3.926-.938c-1.575-.638-2.695-1.653-3.359-3.047a11.403 11.403 0 0 1-1.094-4.492 27.112 27.112 0 0 1 .84-8.379 38.191 38.191 0 0 1 3.008-7.851 81.071 81.071 0 0 1 9.101-13.926 63.171 63.171 0 0 1 12.09-11.406 28.15 28.15 0 0 1 4.258-2.442c1.55-.716 3.138-.97 4.766-.761a3.688 3.688 0 0 1 1.66.781c.508.39.879.879 1.113 1.465a5.38 5.38 0 0 1 .234 2.226c-.065.756-.195 1.491-.39 2.207-1.445 5.495-4.004 10.437-7.676 14.825a.99.99 0 0 1-.664.351 1.074 1.074 0 0 1-.723-.234.973.973 0 0 1-.351-.703c-.013-.274.084-.521.293-.742a32.006 32.006 0 0 0 5.273-7.247 28.322 28.322 0 0 0 2.969-8.476 4.235 4.235 0 0 0-.176-1.758c-.403-.794-.983-1.263-1.738-1.406-.742-.143-1.53-.091-2.363.156-.834.234-1.576.527-2.227.879-2.552 1.432-5.019 3.255-7.402 5.469a71.233 71.233 0 0 0-6.7 7.148 109.224 109.224 0 0 0-5.605 7.422 73.484 73.484 0 0 0-4.414 7.5 36.665 36.665 0 0 0-3.027 8.125 23.312 23.312 0 0 0-.391 8.613c.143.82.41 1.589.801 2.305.403.73.963 1.315 1.679 1.758.756.39 1.537.69 2.344.898 2.37.547 4.766.56 7.188.04a29.001 29.001 0 0 0 7.05-2.5 48.99 48.99 0 0 0 6.29-3.75c1.132-.821 2.473-1.889 4.023-3.204a32.278 32.278 0 0 0 4.199-4.238c1.25-1.51 1.979-2.95 2.188-4.316Zm18.164-10c.104-.104.208-.143.312-.117a.296.296 0 0 1 .215.196c.039.09.007.188-.098.293l-.859.82a28.293 28.293 0 0 1-2.988 2.598 8.398 8.398 0 0 1-3.457 1.562c-1.354-.065-2.207-.599-2.559-1.602-.338-1.002-.351-2.122-.039-3.359a33.893 33.893 0 0 0-2.773 2.11 13.541 13.541 0 0 0-2.285 2.48c-.365 1.042-.73 2.077-1.094 3.105-.039.144-.117.235-.235.274a.372.372 0 0 1-.332 0c-.117-.052-.175-.15-.175-.293-.079-1.146.195-2.227.82-3.242a170.413 170.413 0 0 1 4.59-14.297.852.852 0 0 1-.469-.41c-.091-.196-.059-.424.098-.684.664-1.055 1.341-2.09 2.031-3.105.182-.26.397-.385.644-.372.261 0 .469.098.625.293.17.183.202.417.098.704a272.429 272.429 0 0 0-5.664 15.332 27.148 27.148 0 0 1 2.695-2.5c.873-.716 1.752-1.4 2.637-2.051.234-.17.462-.215.684-.137a.763.763 0 0 1 .488.45c.091.208.059.436-.098.683a7.958 7.958 0 0 0-1.347 2.148c-.339.795-.437 1.595-.293 2.403.26.898.774 1.406 1.543 1.523.781.117 1.569-.065 2.363-.547a16.637 16.637 0 0 0 3.457-2.656 18.907 18.907 0 0 0 1.465-1.602Zm13.457 0c.039.157-.052.28-.274.372a3.5 3.5 0 0 1-.683.214 3.41 3.41 0 0 0-.43.137 16.33 16.33 0 0 1-3.965.527h-.195a36.935 36.935 0 0 1-1.797-.097 8.822 8.822 0 0 1-1.973-.371 7.15 7.15 0 0 1-.527 2.89c-.365.938-.879 1.648-1.543 2.13-.781.56-1.497.715-2.148.468-.651-.247-1.068-.84-1.25-1.777-.196-1.72.227-3.288 1.269-4.707a5.673 5.673 0 0 1 1.973-1.621c.364-.144.657-.092.879.156.117-.117.267-.13.449-.04.443.508.723 1.14.84 1.895.651.26 1.38.43 2.187.508.808.065 1.42.098 1.836.098a14.008 14.008 0 0 0 5.078-.899.167.167 0 0 1 .157 0 .255.255 0 0 1 .117.117Zm-10.176-.351a2.86 2.86 0 0 0-.176-.566c0 .208.059.397.176.566Zm-2.676 5.84c1.003-.235 1.745-.853 2.227-1.856a5.924 5.924 0 0 0 .605-3.164c-.403-.221-.683-.52-.84-.898a4.52 4.52 0 0 0-1.757 1.601 5.832 5.832 0 0 0-.84 2.207.643.643 0 0 1-.02.157 5.882 5.882 0 0 0 0 1.172c.052.403.261.664.625.78Zm25.684-5.567c.143.117.11.332-.098.645a5.897 5.897 0 0 1-.84 1.016c-.351.364-.696.703-1.035 1.015-.338.3-.573.501-.703.606a12.663 12.663 0 0 1-3.398 1.953 13.15 13.15 0 0 1-3.75.8 18.022 18.022 0 0 1-3.75-.156.186.186 0 0 1-.157-.078c-.13.287-.254.58-.371.879-.13.469-.267.938-.41 1.406a.427.427 0 0 1-.195.293.581.581 0 0 1-.352.078c-.234-.104-.338-.286-.312-.547a2.92 2.92 0 0 1 .215-.82c.078-.221.13-.416.156-.586a5.93 5.93 0 0 1 .137-.468 203.682 203.682 0 0 1 4.511-15.215.665.665 0 0 1-.312-.391c-.039-.17-.007-.358.097-.566l1.817-3.38c.169-.286.384-.435.644-.448a.782.782 0 0 1 .664.273c.183.182.215.423.098.723a150.787 150.787 0 0 0-5.332 14.921 17.567 17.567 0 0 1 1.68-1.855 51.99 51.99 0 0 1 1.621-1.445c.208-.183.41-.358.605-.528.222-.195.443-.267.664-.215a.785.785 0 0 1 .528.372c.117.195.117.423 0 .683a21.001 21.001 0 0 1-2.403 3.36 51.94 51.94 0 0 1-2.851 3.007c2.357.3 4.629.02 6.816-.84 2.188-.859 4.037-2.33 5.547-4.413a.359.359 0 0 1 .215-.137.354.354 0 0 1 .254.058Zm-10.801 1.758a14.612 14.612 0 0 0-2.344 2.95l.84-.997a32.354 32.354 0 0 0 1.504-1.953Zm23.106-1.816c.13.156.11.332-.059.527a3.88 3.88 0 0 1-.566.566c-.157.13-.267.235-.333.313-.494.443-1.315 1.029-2.46 1.758a31.117 31.117 0 0 1-3.77 2.031c-1.367.625-2.617 1.003-3.75 1.133-1.133.13-1.927-.176-2.383-.918a5.873 5.873 0 0 1-.273-3.418 7.584 7.584 0 0 1 1.406-3.184c.417-.494.918-.768 1.504-.82.586-.052.95.3 1.094 1.055.091.377-.02.794-.332 1.25a6.123 6.123 0 0 1-1.172 1.23c-.456.378-.853.638-1.192.781-.156.82-.201 1.517-.136 2.09.104.834.599 1.237 1.484 1.211.898-.026 1.94-.28 3.125-.761a29.513 29.513 0 0 0 3.34-1.622c1.028-.586 1.738-1.028 2.129-1.328a9.781 9.781 0 0 0 1.972-1.836c.052-.065.111-.097.176-.097a.248.248 0 0 1 .196.039Zm-10.801-.547c-.586.404-1.009 1.068-1.27 1.992.326-.3.625-.631.899-.996.273-.378.397-.71.371-.996Zm16.933 1.465a.676.676 0 0 0 .332.117c.144.013.293.02.45.02a1.48 1.48 0 0 1 .429.019c.13.013.202.072.215.176-.052.156-.202.267-.449.332a2.874 2.874 0 0 1-.762.058c-.273-.013-.488-.052-.644-.117-.417-.208-.71-.495-.879-.86a2.76 2.76 0 0 1-.235-1.23 18.53 18.53 0 0 0-3.418 3.907 30.482 30.482 0 0 0-2.441 4.59.436.436 0 0 1-.195.234.372.372 0 0 1-.528-.254.939.939 0 0 1-.058-.332 1.14 1.14 0 0 0-.039-.313c-.157-2.565.41-4.954 1.699-7.168.182-.26.404-.377.664-.351a.92.92 0 0 1 .644.351c.17.209.189.456.059.743a12.695 12.695 0 0 0-.82 2.07 18.069 18.069 0 0 1 5.176-5.957c.234-.156.462-.189.683-.098a.824.824 0 0 1 .488.469c.105.221.072.45-.097.684-.274.416-.495.918-.664 1.503-.17.586-.039 1.055.39 1.407Zm16.114-.801c.143.039.084.163-.176.371-.261.208-.625.45-1.094.723a85.73 85.73 0 0 1-1.328.78c-.508.287-.84.483-.996.587l-2.617 1.406a198.429 198.429 0 0 0-3.243 1.758c-.039.364-.195.755-.468 1.172a4.222 4.222 0 0 1-1.465 1.289 6.728 6.728 0 0 1-1.856.664c-.078 0-.169.013-.273.039a1.77 1.77 0 0 1-.586.02c-.208-.014-.339-.118-.391-.313.3-.508.717-.911 1.25-1.21.157-.092.3-.19.43-.294a57.333 57.333 0 0 1 1.895-1.172 1.447 1.447 0 0 0 0-.879 47.747 47.747 0 0 0-.411-.722 6.285 6.285 0 0 1-.898-2.149c-.195-1.185-.104-2.11.273-2.773.378-.664.834-1.107 1.368-1.328.547-.235.976-.293 1.289-.176.325.104.325.345 0 .723-.677.351-1.107.872-1.289 1.562-.183.677-.17 1.36.039 2.05.13.404.293.802.488 1.192.299.56.501 1.12.605 1.68a74.64 74.64 0 0 0 1.407-.762l.586-.312c.677-.365 1.36-.723 2.05-1.075a52.673 52.673 0 0 0 4.297-2.402c.078-.039.15-.084.215-.137a2.48 2.48 0 0 1 .43-.254.811.811 0 0 1 .469-.058Zm-11.543 6.816c-.586.326-1.146.69-1.68 1.094a5.673 5.673 0 0 0 1.68-1.094Z" fill="#393644"/><path d="M37.59 6.566c.95.066 1.62.417 2.01 1.055.392.625.6 1.367.626 2.227.026.859-.02 1.653-.137 2.382a67.979 67.979 0 0 1-1.992 8.555c-.052.182-.104.371-.156.567a782.612 782.612 0 0 1-1.504 5.195 402.346 402.346 0 0 0-2.871 10.098l.722.078c.196.052.313.156.352.312a.425.425 0 0 1-.059.41c-.09.13-.234.183-.43.157-.273-.052-.54-.098-.8-.137a141.866 141.866 0 0 0-1.309 5.273 100.49 100.49 0 0 0-1.738 9.883 32.883 32.883 0 0 0 .273 9.98c.13.574.293 1.127.489 1.66.09.274.084.528-.02.762a.957.957 0 0 1-1.328.45.954.954 0 0 1-.508-.606 19.632 19.632 0 0 1-.41-1.933 30.237 30.237 0 0 1-.176-6.602c.183-2.2.469-4.382.86-6.543a157.784 157.784 0 0 1 2.851-12.5 77.903 77.903 0 0 0-13.828-.957c-2.578 3.659-5.039 7.142-7.383 10.45-2.33 3.307-4.258 6.034-5.781 8.183l-2.266 3.242c-.273.326-.579.456-.918.39a1 1 0 0 1-.742-.527c-.169-.286-.143-.618.078-.996.118-.182 1.582-2.265 4.395-6.25 2.812-3.984 6.204-8.795 10.176-14.433a93.59 93.59 0 0 0-2.696.156 39.5 39.5 0 0 0-8.593 1.582c-.47.104-.82.013-1.055-.273a1.104 1.104 0 0 1-.215-.958c.091-.364.378-.592.86-.683 4.088-.417 8.183-.632 12.285-.645 1.575-2.252 3.157-4.505 4.746-6.758 4.153-5.885 7.721-10.944 10.703-15.175a3063.77 3063.77 0 0 0 4.707-6.68c.208-.26.469-.39.781-.39Zm-.821 14.454c.026-.092.058-.215.098-.372.22-.859.52-2.154.898-3.886a37.92 37.92 0 0 0 .762-5c.143-1.602-.026-2.637-.508-3.106-.39.534-2.435 3.425-6.133 8.672-3.698 5.248-7.982 11.335-12.852 18.262 4.519.065 9.024.37 13.516.918.56-2.07 1.126-4.134 1.7-6.192a443.977 443.977 0 0 0 2.519-9.296ZM86.886 4.085a475.859 475.859 0 0 0-5.02 10.312c-1.028 2.149-2.057 4.29-3.085 6.426a112.74 112.74 0 0 0-3.594 17.52c-.73 5.911-.983 11.009-.762 15.293.091 1.823.267 3.691.527 5.605.274 1.914.73 3.763 1.368 5.547a15.351 15.351 0 0 0 2.812 4.805c.182.221.228.443.137.664a.704.704 0 0 1-.45.469c-.22.09-.449.032-.683-.176a12.844 12.844 0 0 1-1.426-1.836c-1.77-3.047-2.903-6.888-3.398-11.524-.495-4.622-.495-9.596 0-14.922a117.67 117.67 0 0 1 2.558-15.644c-1.38 2.747-2.8 5.475-4.258 8.184a130.58 130.58 0 0 1-4.648 7.949c-.117.17-.24.345-.371.527a47.75 47.75 0 0 1-2.207 3.106c-.885 1.159-1.842 2.122-2.871 2.89-1.029.769-2.057 1.035-3.086.801-.495-.195-.82-.645-.977-1.348-.156-.69-.227-1.465-.215-2.324.027-.846.079-1.608.157-2.285.026-.325.045-.599.058-.82.313-2.904.704-5.788 1.172-8.653.274-1.823.567-3.652.88-5.488.416-2.396.793-4.792 1.132-7.187.351-2.41.592-4.831.723-7.266.013-.156.026-.326.039-.508.026-.3.039-.586.039-.86 0-.273-.046-.468-.137-.585-1.042-.43-2.129-.26-3.262.508-1.12.768-2.226 1.907-3.32 3.418a45.47 45.47 0 0 0-3.047 4.863 90.91 90.91 0 0 0-2.46 4.902c-.69 1.51-1.205 2.67-1.544 3.477a217.596 217.596 0 0 0-8.086 22.695c-.09.247-.254.39-.488.43a.682.682 0 0 1-.606-.137c-.182-.13-.26-.332-.234-.605l.117-.801c.079-.521.17-1.166.274-1.934a120132.612 120132.612 0 0 0 .644-4.238l.118-.781a304.81 304.81 0 0 0 1.035-7.715c.312-2.578.546-5.163.703-7.754.143-2.578.104-5.15-.117-7.715 0-.3.104-.508.312-.625a.75.75 0 0 1 .645-.058c.234.078.37.266.41.566a70.897 70.897 0 0 1-.195 12.207 203.84 203.84 0 0 1-1.582 12.227 271.21 271.21 0 0 1 6.367-16.075 127.766 127.766 0 0 1 3.574-7.52 52.466 52.466 0 0 1 4.394-7.109 15.868 15.868 0 0 1 1.836-2.09 7.124 7.124 0 0 1 2.344-1.503c.846-.326 1.745-.313 2.695.039l.137.097c.091.052.208.163.352.332.143.17.286.424.43.762.143.339.28.781.41 1.328.169 1.068.169 2.136 0 3.203a7.804 7.804 0 0 0-.06.547 147.537 147.537 0 0 1-1.62 10.488c-.065.352-.13.697-.195 1.036-.183.99-.372 2.018-.567 3.086A205.1 205.1 0 0 0 58.86 43.46a25.525 25.525 0 0 0-.274 4.219c.013.221.04.442.078.664.04.221.105.41.196.566 1.106.052 2.383-.696 3.828-2.246 1.458-1.536 3.001-3.62 4.629-6.25 1.64-2.63 3.287-5.547 4.941-8.75a306.976 306.976 0 0 0 4.824-9.727c1.758-6.21 3.757-11.217 5.996-15.019a19.324 19.324 0 0 1 2.696-3.613.673.673 0 0 1 .488-.215c.182 0 .345.065.488.195.222.248.267.514.137.8Zm.077 27.754v-3.12h9.68v3.12h-9.68Zm49.396 12.265c.091-.533.325-.846.703-.937.39-.091.735-.007 1.035.254.299.273.358.664.176 1.172-1.394 2.33-3.262 4.661-5.606 6.992-2.33 2.33-4.941 4.453-7.832 6.367-2.877 1.914-5.833 3.405-8.867 4.473-3.034 1.08-5.951 1.523-8.75 1.328a13.616 13.616 0 0 1-3.926-.938c-1.575-.638-2.695-1.653-3.36-3.047a11.404 11.404 0 0 1-1.093-4.492 27.113 27.113 0 0 1 .84-8.379 38.191 38.191 0 0 1 3.008-7.851 81.071 81.071 0 0 1 9.101-13.926 63.171 63.171 0 0 1 12.09-11.406 28.15 28.15 0 0 1 4.258-2.442c1.549-.716 3.138-.97 4.766-.761a3.688 3.688 0 0 1 1.66.781c.508.39.879.879 1.113 1.465a5.38 5.38 0 0 1 .234 2.226c-.065.756-.195 1.491-.39 2.207-1.446 5.495-4.004 10.437-7.676 14.825a.99.99 0 0 1-.664.351 1.074 1.074 0 0 1-.723-.234.973.973 0 0 1-.351-.703c-.013-.274.084-.521.293-.742a32.006 32.006 0 0 0 5.273-7.247 28.35 28.35 0 0 0 2.969-8.476 4.235 4.235 0 0 0-.176-1.758c-.404-.794-.983-1.263-1.738-1.406-.742-.143-1.53-.091-2.363.156-.834.234-1.576.527-2.227.879-2.552 1.432-5.02 3.255-7.402 5.469a71.233 71.233 0 0 0-6.7 7.148 109.224 109.224 0 0 0-5.605 7.422 73.484 73.484 0 0 0-4.414 7.5 36.665 36.665 0 0 0-3.027 8.125 23.29 23.29 0 0 0-.391 8.613c.143.82.41 1.589.801 2.305.403.73.963 1.315 1.679 1.758.756.39 1.537.69 2.344.898 2.37.547 4.766.56 7.188.04a29.001 29.001 0 0 0 7.05-2.5 48.908 48.908 0 0 0 6.289-3.75c1.133-.821 2.474-1.889 4.024-3.204a32.278 32.278 0 0 0 4.199-4.238c1.25-1.51 1.979-2.95 2.188-4.316Zm18.164-10c.104-.104.208-.143.312-.117a.296.296 0 0 1 .215.196c.039.09.007.188-.098.293l-.859.82a28.293 28.293 0 0 1-2.988 2.598 8.398 8.398 0 0 1-3.457 1.562c-1.354-.065-2.207-.599-2.559-1.602-.338-1.002-.351-2.122-.039-3.359a33.893 33.893 0 0 0-2.773 2.11 13.548 13.548 0 0 0-2.286 2.48 830.72 830.72 0 0 1-1.093 3.105c-.039.144-.117.235-.235.274a.372.372 0 0 1-.332 0c-.117-.052-.175-.15-.175-.293-.079-1.146.195-2.227.82-3.242a170.413 170.413 0 0 1 4.59-14.297.852.852 0 0 1-.469-.41c-.091-.196-.059-.424.098-.684.664-1.055 1.341-2.09 2.031-3.105.182-.26.397-.385.644-.372.261 0 .469.098.625.293.17.183.202.417.098.704a272.429 272.429 0 0 0-5.664 15.332 27.148 27.148 0 0 1 2.695-2.5c.873-.716 1.752-1.4 2.637-2.051.234-.17.462-.215.684-.137a.763.763 0 0 1 .488.45c.091.208.058.436-.098.683a7.958 7.958 0 0 0-1.347 2.148c-.339.795-.437 1.595-.293 2.403.26.898.774 1.406 1.543 1.523.781.117 1.569-.065 2.363-.547a16.637 16.637 0 0 0 3.457-2.656 18.907 18.907 0 0 0 1.465-1.602Zm13.457 0c.039.157-.052.28-.274.372a3.5 3.5 0 0 1-.683.214 3.41 3.41 0 0 0-.43.137 16.33 16.33 0 0 1-3.965.527h-.195a36.935 36.935 0 0 1-1.797-.097 8.822 8.822 0 0 1-1.973-.371 7.15 7.15 0 0 1-.527 2.89c-.365.938-.879 1.648-1.543 2.13-.781.56-1.497.715-2.148.468-.651-.247-1.068-.84-1.25-1.777-.196-1.72.227-3.288 1.269-4.707a5.673 5.673 0 0 1 1.973-1.621c.364-.144.657-.092.879.156.117-.117.267-.13.449-.04.443.508.723 1.14.84 1.895.651.26 1.38.43 2.187.508.808.065 1.42.098 1.836.098a14.008 14.008 0 0 0 5.078-.899.167.167 0 0 1 .157 0 .255.255 0 0 1 .117.117Zm-10.176-.351a2.86 2.86 0 0 0-.176-.566c0 .208.059.397.176.566Zm-2.676 5.84c1.003-.235 1.745-.853 2.227-1.856a5.924 5.924 0 0 0 .605-3.164c-.403-.221-.683-.52-.84-.898a4.52 4.52 0 0 0-1.757 1.601 5.832 5.832 0 0 0-.84 2.207.643.643 0 0 1-.02.157 5.882 5.882 0 0 0 0 1.172c.052.403.261.664.625.78Zm25.684-5.567c.143.117.11.332-.098.645a5.897 5.897 0 0 1-.84 1.016c-.351.364-.696.703-1.035 1.015-.338.3-.573.501-.703.606a12.663 12.663 0 0 1-3.398 1.953 13.15 13.15 0 0 1-3.75.8 18.022 18.022 0 0 1-3.75-.156.186.186 0 0 1-.157-.078c-.13.287-.254.58-.371.879-.13.469-.267.938-.41 1.406a.427.427 0 0 1-.195.293.581.581 0 0 1-.352.078c-.234-.104-.338-.286-.312-.547a2.92 2.92 0 0 1 .215-.82c.078-.221.13-.416.156-.586.039-.156.084-.312.136-.468a203.69 203.69 0 0 1 4.512-15.215.665.665 0 0 1-.312-.391c-.039-.17-.007-.358.097-.566l1.817-3.38c.169-.286.384-.435.644-.448a.782.782 0 0 1 .664.273c.183.182.215.423.098.723a150.787 150.787 0 0 0-5.332 14.921 17.567 17.567 0 0 1 1.68-1.855 51.99 51.99 0 0 1 1.621-1.445c.208-.183.41-.358.605-.528.222-.195.443-.267.664-.215.235.053.41.176.528.372.117.195.117.423 0 .683a21.001 21.001 0 0 1-2.403 3.36 51.94 51.94 0 0 1-2.851 3.007c2.357.3 4.629.02 6.816-.84 2.188-.859 4.037-2.33 5.547-4.413a.359.359 0 0 1 .215-.137.354.354 0 0 1 .254.058Zm-10.801 1.758a14.612 14.612 0 0 0-2.344 2.95l.84-.997a32.354 32.354 0 0 0 1.504-1.953Zm23.105-1.816c.131.156.111.332-.058.527a3.84 3.84 0 0 1-.567.566c-.156.13-.266.235-.332.313-.494.443-1.315 1.029-2.461 1.758a31.027 31.027 0 0 1-3.769 2.031c-1.367.625-2.617 1.003-3.75 1.133-1.133.13-1.927-.176-2.383-.918-.43-1.094-.521-2.233-.273-3.418a7.584 7.584 0 0 1 1.406-3.184c.417-.494.918-.768 1.504-.82.586-.052.95.3 1.094 1.055.091.377-.02.794-.332 1.25a6.151 6.151 0 0 1-1.172 1.23c-.456.378-.853.638-1.192.781-.156.82-.202 1.517-.136 2.09.104.834.599 1.237 1.484 1.211.898-.026 1.94-.28 3.125-.761a29.513 29.513 0 0 0 3.34-1.622c1.028-.586 1.738-1.028 2.129-1.328a9.781 9.781 0 0 0 1.972-1.836c.052-.065.111-.097.176-.097a.244.244 0 0 1 .195.039Zm-10.8-.547c-.586.404-1.009 1.068-1.27 1.992.326-.3.625-.631.899-.996.273-.378.397-.71.371-.996Zm16.933 1.465a.676.676 0 0 0 .332.117c.144.013.293.02.45.02a1.48 1.48 0 0 1 .429.019c.13.013.202.072.215.176-.052.156-.202.267-.449.332a2.877 2.877 0 0 1-.762.058c-.273-.013-.488-.052-.644-.117-.417-.208-.71-.495-.879-.86a2.76 2.76 0 0 1-.235-1.23 18.53 18.53 0 0 0-3.418 3.907 30.482 30.482 0 0 0-2.441 4.59.436.436 0 0 1-.195.234.372.372 0 0 1-.528-.254.939.939 0 0 1-.058-.332 1.14 1.14 0 0 0-.039-.313c-.157-2.565.41-4.954 1.699-7.168.182-.26.403-.377.664-.351a.92.92 0 0 1 .644.351c.17.209.189.456.059.743a12.606 12.606 0 0 0-.82 2.07 18.077 18.077 0 0 1 5.175-5.957c.235-.156.463-.189.684-.098a.827.827 0 0 1 .488.469c.105.221.072.45-.097.684-.274.416-.495.918-.664 1.503-.17.586-.039 1.055.39 1.407Zm16.114-.801c.143.039.084.163-.176.371-.261.208-.625.45-1.094.723a85.73 85.73 0 0 1-1.328.78c-.508.287-.84.483-.996.587l-2.617 1.406a198.429 198.429 0 0 0-3.243 1.758c-.039.364-.195.755-.468 1.172a4.222 4.222 0 0 1-1.465 1.289 6.728 6.728 0 0 1-1.856.664c-.078 0-.169.013-.273.039a1.77 1.77 0 0 1-.586.02c-.208-.014-.339-.118-.391-.313.3-.508.717-.911 1.25-1.21.157-.092.3-.19.43-.294a57.333 57.333 0 0 1 1.895-1.172 1.447 1.447 0 0 0 0-.879 47.747 47.747 0 0 0-.411-.722 6.285 6.285 0 0 1-.898-2.149c-.195-1.185-.104-2.11.273-2.773.378-.664.834-1.107 1.368-1.328.546-.235.976-.293 1.289-.176.325.104.325.345 0 .723-.677.351-1.107.872-1.289 1.562-.183.677-.17 1.36.039 2.05.13.404.293.802.488 1.192.299.56.501 1.12.605 1.68a74.64 74.64 0 0 0 1.407-.762l.586-.312c.677-.365 1.36-.723 2.05-1.075a52.673 52.673 0 0 0 4.297-2.402c.078-.039.15-.084.215-.137a2.48 2.48 0 0 1 .43-.254.811.811 0 0 1 .469-.058Zm-11.543 6.816c-.586.326-1.146.69-1.68 1.094a5.673 5.673 0 0 0 1.68-1.094Z" fill="#393644"/><path d="M37.29 6.566c.95.066 1.62.417 2.01 1.055.391.625.6 1.367.626 2.227.026.859-.02 1.653-.137 2.382a67.996 67.996 0 0 1-1.992 8.555c-.052.182-.104.371-.156.567a782.612 782.612 0 0 1-1.504 5.195 402.77 402.77 0 0 0-2.871 10.098l.722.078c.196.052.313.156.352.312a.425.425 0 0 1-.059.41c-.09.13-.234.183-.43.157-.273-.052-.54-.098-.8-.137a141.47 141.47 0 0 0-1.309 5.273 100.52 100.52 0 0 0-1.738 9.883 32.886 32.886 0 0 0 .273 9.98c.13.574.293 1.127.489 1.66.09.274.084.528-.02.762a.957.957 0 0 1-1.328.45.953.953 0 0 1-.508-.606 19.632 19.632 0 0 1-.41-1.933 30.23 30.23 0 0 1-.176-6.602c.182-2.2.469-4.382.86-6.543a157.74 157.74 0 0 1 2.851-12.5 77.904 77.904 0 0 0-13.828-.957 4705.002 4705.002 0 0 1-7.383 10.45 3546.35 3546.35 0 0 1-5.781 8.183l-2.266 3.242c-.273.326-.58.456-.918.39a1 1 0 0 1-.742-.527c-.17-.286-.143-.618.078-.996.117-.182 1.582-2.265 4.395-6.25 2.812-3.984 6.204-8.795 10.176-14.433-.899.039-1.797.09-2.696.156a39.5 39.5 0 0 0-8.593 1.582c-.47.104-.82.013-1.055-.273a1.104 1.104 0 0 1-.215-.958c.091-.364.378-.592.86-.683 4.088-.417 8.183-.632 12.285-.645 1.575-2.252 3.157-4.505 4.746-6.758 4.153-5.885 7.721-10.944 10.703-15.175 2.995-4.245 4.564-6.472 4.707-6.68.208-.26.469-.39.781-.39Zm-.821 14.454c.026-.092.058-.215.097-.372.222-.859.521-2.154.899-3.886.377-1.732.631-3.399.762-5 .143-1.602-.026-2.637-.508-3.106-.39.534-2.435 3.425-6.133 8.672A20023.2 20023.2 0 0 0 18.734 35.59c4.519.065 9.024.37 13.516.918.56-2.07 1.126-4.134 1.7-6.192a443.979 443.979 0 0 0 2.519-9.296ZM86.586 4.085a476.324 476.324 0 0 0-5.02 10.312c-1.028 2.149-2.057 4.29-3.085 6.426a112.74 112.74 0 0 0-3.594 17.52c-.73 5.911-.983 11.009-.762 15.293.091 1.823.267 3.691.527 5.605.274 1.914.73 3.763 1.367 5.547a15.355 15.355 0 0 0 2.813 4.805c.182.221.228.443.137.664a.704.704 0 0 1-.45.469c-.22.09-.449.032-.683-.176a12.843 12.843 0 0 1-1.426-1.836c-1.77-3.047-2.903-6.888-3.398-11.524-.495-4.622-.495-9.596 0-14.922a117.685 117.685 0 0 1 2.558-15.644c-1.38 2.747-2.8 5.475-4.257 8.184a130.58 130.58 0 0 1-4.649 7.949c-.117.17-.24.345-.371.527a47.756 47.756 0 0 1-2.207 3.106c-.886 1.159-1.843 2.122-2.871 2.89-1.029.769-2.057 1.035-3.086.801-.495-.195-.82-.645-.977-1.348-.156-.69-.227-1.465-.215-2.324.027-.846.079-1.608.157-2.285.026-.325.045-.599.058-.82.313-2.904.703-5.788 1.172-8.653.274-1.823.567-3.652.88-5.488.416-2.396.793-4.792 1.132-7.187.352-2.41.592-4.831.723-7.266.013-.156.026-.326.039-.508.026-.3.039-.586.039-.86 0-.273-.046-.468-.137-.585-1.042-.43-2.129-.26-3.262.508-1.12.768-2.226 1.907-3.32 3.418a45.439 45.439 0 0 0-3.047 4.863 90.91 90.91 0 0 0-2.46 4.902c-.69 1.51-1.205 2.67-1.544 3.477a217.597 217.597 0 0 0-8.086 22.695c-.09.247-.254.39-.488.43a.682.682 0 0 1-.605-.137c-.183-.13-.26-.332-.235-.605l.117-.801c.078-.521.17-1.166.274-1.934l.351-2.304c.117-.756.215-1.4.293-1.934l.117-.781a304.81 304.81 0 0 0 1.036-7.715c.312-2.578.547-5.163.703-7.754.143-2.578.104-5.15-.117-7.715 0-.3.104-.508.312-.625a.75.75 0 0 1 .645-.058c.234.078.37.266.41.566a70.907 70.907 0 0 1-.196 12.207 203.76 203.76 0 0 1-1.582 12.227 271.143 271.143 0 0 1 6.368-16.075 127.828 127.828 0 0 1 3.574-7.52 52.486 52.486 0 0 1 4.394-7.109 15.877 15.877 0 0 1 1.836-2.09 7.123 7.123 0 0 1 2.344-1.503c.846-.326 1.745-.313 2.695.039l.137.097c.091.052.208.163.352.332.143.17.286.424.43.762.143.339.28.781.41 1.328a10.17 10.17 0 0 1 0 3.203 7.745 7.745 0 0 0-.06.547 147.651 147.651 0 0 1-1.62 10.488c-.065.352-.13.697-.196 1.036l-.566 3.086A205.1 205.1 0 0 0 58.56 43.46a25.514 25.514 0 0 0-.274 4.219c.013.221.04.442.078.664.04.221.104.41.196.566 1.106.052 2.382-.696 3.828-2.246 1.458-1.536 3.001-3.62 4.629-6.25 1.64-2.63 3.287-5.547 4.941-8.75a306.547 306.547 0 0 0 4.824-9.727c1.758-6.21 3.757-11.217 5.996-15.019a19.325 19.325 0 0 1 2.696-3.613.673.673 0 0 1 .488-.215c.182 0 .345.065.488.195.222.248.267.514.137.8Zm.076 27.754v-3.12h9.68v3.12h-9.68Zm49.397 12.265c.091-.533.325-.846.703-.937.39-.091.735-.007 1.035.254.299.273.358.664.176 1.172-1.394 2.33-3.262 4.661-5.606 6.992a50.307 50.307 0 0 1-7.832 6.367c-2.877 1.914-5.833 3.405-8.867 4.473-3.034 1.08-5.951 1.523-8.75 1.328a13.616 13.616 0 0 1-3.926-.938c-1.575-.638-2.695-1.653-3.36-3.047a11.406 11.406 0 0 1-1.093-4.492 27.112 27.112 0 0 1 .84-8.379 38.197 38.197 0 0 1 3.008-7.851 81.071 81.071 0 0 1 9.101-13.926 63.171 63.171 0 0 1 12.09-11.406 28.102 28.102 0 0 1 4.258-2.442c1.549-.716 3.138-.97 4.766-.761a3.688 3.688 0 0 1 1.66.781c.508.39.879.879 1.113 1.465a5.38 5.38 0 0 1 .234 2.226c-.065.756-.195 1.491-.39 2.207-1.446 5.495-4.004 10.437-7.676 14.825a.99.99 0 0 1-.664.351 1.073 1.073 0 0 1-.723-.234.973.973 0 0 1-.351-.703c-.013-.274.084-.521.293-.742a32.006 32.006 0 0 0 5.273-7.247 28.35 28.35 0 0 0 2.969-8.476 4.235 4.235 0 0 0-.176-1.758c-.404-.794-.983-1.263-1.738-1.406-.742-.143-1.53-.091-2.364.156-.833.234-1.575.527-2.226.879-2.552 1.432-5.02 3.255-7.402 5.469a71.233 71.233 0 0 0-6.7 7.148 109.224 109.224 0 0 0-5.605 7.422 73.484 73.484 0 0 0-4.414 7.5 36.665 36.665 0 0 0-3.027 8.125c-.665 2.813-.795 5.684-.391 8.613.143.82.41 1.589.801 2.305.403.73.963 1.315 1.679 1.758.756.39 1.537.69 2.344.898 2.37.547 4.766.56 7.188.04a29.016 29.016 0 0 0 7.05-2.5 48.908 48.908 0 0 0 6.289-3.75c1.133-.821 2.474-1.889 4.024-3.204a32.278 32.278 0 0 0 4.199-4.238c1.25-1.51 1.979-2.95 2.188-4.316Zm18.164-10c.104-.104.208-.143.312-.117a.296.296 0 0 1 .215.196c.039.09.007.188-.098.293l-.859.82a28.394 28.394 0 0 1-2.988 2.598 8.398 8.398 0 0 1-3.457 1.562c-1.355-.065-2.207-.599-2.559-1.602-.338-1.002-.351-2.122-.039-3.359a33.722 33.722 0 0 0-2.773 2.11 13.548 13.548 0 0 0-2.286 2.48 830.72 830.72 0 0 1-1.093 3.105c-.039.144-.118.235-.235.274a.372.372 0 0 1-.332 0c-.117-.052-.176-.15-.176-.293-.078-1.146.196-2.227.821-3.242a170.413 170.413 0 0 1 4.59-14.297.852.852 0 0 1-.469-.41c-.091-.196-.059-.424.098-.684.664-1.055 1.341-2.09 2.031-3.105.182-.26.397-.385.644-.372.261 0 .469.098.625.293.17.183.202.417.098.704a272.429 272.429 0 0 0-5.664 15.332 27.148 27.148 0 0 1 2.695-2.5c.873-.716 1.752-1.4 2.637-2.051.234-.17.462-.215.684-.137a.763.763 0 0 1 .488.45c.091.208.058.436-.098.683a7.958 7.958 0 0 0-1.347 2.148c-.339.795-.437 1.595-.293 2.403.26.898.774 1.406 1.543 1.523.781.117 1.569-.065 2.363-.547a16.637 16.637 0 0 0 3.457-2.656 18.907 18.907 0 0 0 1.465-1.602Zm13.457 0c.039.157-.052.28-.274.372a3.5 3.5 0 0 1-.683.214 3.41 3.41 0 0 0-.43.137 16.33 16.33 0 0 1-3.965.527h-.195a36.935 36.935 0 0 1-1.797-.097 8.822 8.822 0 0 1-1.973-.371 7.15 7.15 0 0 1-.527 2.89c-.365.938-.879 1.648-1.543 2.13-.781.56-1.497.715-2.148.468-.652-.247-1.068-.84-1.25-1.777-.196-1.72.227-3.288 1.269-4.707a5.664 5.664 0 0 1 1.973-1.621c.364-.144.657-.092.879.156.117-.117.267-.13.449-.04.443.508.723 1.14.84 1.895.651.26 1.38.43 2.187.508.807.065 1.419.098 1.836.098a14.008 14.008 0 0 0 5.078-.899.165.165 0 0 1 .156 0 .253.253 0 0 1 .118.117Zm-10.176-.351a2.86 2.86 0 0 0-.176-.566c0 .208.059.397.176.566Zm-2.676 5.84c1.003-.235 1.745-.853 2.227-1.856a5.933 5.933 0 0 0 .605-3.164c-.403-.221-.683-.52-.84-.898a4.53 4.53 0 0 0-1.758 1.601 5.847 5.847 0 0 0-.839 2.207.643.643 0 0 1-.02.157 5.882 5.882 0 0 0 0 1.172c.052.403.261.664.625.78Zm25.684-5.567c.143.117.11.332-.098.645a5.897 5.897 0 0 1-.84 1.016c-.351.364-.696.703-1.035 1.015-.338.3-.573.501-.703.606a12.678 12.678 0 0 1-3.398 1.953 13.15 13.15 0 0 1-3.75.8 18.016 18.016 0 0 1-3.75-.156.186.186 0 0 1-.157-.078c-.13.287-.254.58-.371.879-.13.469-.267.938-.41 1.406a.427.427 0 0 1-.195.293.581.581 0 0 1-.352.078c-.234-.104-.338-.286-.312-.547a2.95 2.95 0 0 1 .214-.82 3.24 3.24 0 0 0 .157-.586c.039-.156.084-.312.136-.468a203.69 203.69 0 0 1 4.512-15.215.665.665 0 0 1-.312-.391c-.039-.17-.007-.358.097-.566l1.817-3.38c.169-.286.384-.435.644-.448a.782.782 0 0 1 .664.273c.183.182.215.423.098.723a150.787 150.787 0 0 0-5.332 14.921 17.567 17.567 0 0 1 1.68-1.855c.546-.508 1.087-.99 1.621-1.445.208-.183.41-.358.605-.528.222-.195.443-.267.664-.215.235.053.41.176.528.372.117.195.117.423 0 .683a21.064 21.064 0 0 1-2.403 3.36 51.94 51.94 0 0 1-2.851 3.007c2.356.3 4.629.02 6.816-.84 2.188-.859 4.037-2.33 5.547-4.413a.359.359 0 0 1 .215-.137.354.354 0 0 1 .254.058Zm-10.801 1.758a14.577 14.577 0 0 0-2.344 2.95l.84-.997a32.354 32.354 0 0 0 1.504-1.953Zm23.105-1.816c.131.156.111.332-.058.527a3.84 3.84 0 0 1-.567.566c-.156.13-.267.235-.332.313-.494.443-1.315 1.029-2.461 1.758a31.027 31.027 0 0 1-3.769 2.031c-1.367.625-2.617 1.003-3.75 1.133-1.133.13-1.927-.176-2.383-.918-.43-1.094-.521-2.233-.273-3.418a7.584 7.584 0 0 1 1.406-3.184c.417-.494.918-.768 1.504-.82.586-.052.95.3 1.094 1.055.091.377-.02.794-.332 1.25a6.151 6.151 0 0 1-1.172 1.23c-.456.378-.853.638-1.192.781-.156.82-.202 1.517-.136 2.09.104.834.598 1.237 1.484 1.211.898-.026 1.94-.28 3.125-.761a29.513 29.513 0 0 0 3.34-1.622c1.028-.586 1.738-1.028 2.129-1.328a9.781 9.781 0 0 0 1.972-1.836c.052-.065.111-.097.176-.097a.244.244 0 0 1 .195.039Zm-10.8-.547c-.586.404-1.009 1.068-1.27 1.992.326-.3.625-.631.899-.996.273-.378.397-.71.371-.996Zm16.933 1.465a.676.676 0 0 0 .332.117c.143.013.293.02.449.02.17-.014.313-.007.43.019.13.013.202.072.215.176-.052.156-.202.267-.449.332a2.877 2.877 0 0 1-.762.058c-.273-.013-.488-.052-.644-.117-.417-.208-.71-.495-.879-.86a2.76 2.76 0 0 1-.235-1.23 18.53 18.53 0 0 0-3.418 3.907 30.482 30.482 0 0 0-2.441 4.59.436.436 0 0 1-.195.234.372.372 0 0 1-.528-.254.939.939 0 0 1-.058-.332 1.14 1.14 0 0 0-.039-.313c-.157-2.565.41-4.954 1.699-7.168.182-.26.403-.377.664-.351a.92.92 0 0 1 .644.351c.17.209.189.456.059.743a12.606 12.606 0 0 0-.82 2.07 18.077 18.077 0 0 1 5.175-5.957c.235-.156.463-.189.684-.098a.827.827 0 0 1 .488.469c.104.221.072.45-.097.684-.274.416-.495.918-.664 1.503-.17.586-.039 1.055.39 1.407Zm16.113-.801c.144.039.085.163-.175.371-.261.208-.625.45-1.094.723a85.73 85.73 0 0 1-1.328.78c-.508.287-.84.483-.996.587l-2.617 1.406a198.429 198.429 0 0 0-3.243 1.758c-.039.364-.195.755-.468 1.172a4.222 4.222 0 0 1-1.465 1.289 6.728 6.728 0 0 1-1.856.664c-.078 0-.169.013-.273.039a1.77 1.77 0 0 1-.586.02c-.208-.014-.339-.118-.391-.313a3.29 3.29 0 0 1 1.25-1.21c.157-.092.3-.19.43-.294a57.333 57.333 0 0 1 1.895-1.172 1.447 1.447 0 0 0 0-.879 47.747 47.747 0 0 0-.411-.722 6.285 6.285 0 0 1-.898-2.149c-.195-1.185-.104-2.11.273-2.773.378-.664.834-1.107 1.368-1.328.546-.235.976-.293 1.289-.176.325.104.325.345 0 .723-.677.351-1.107.872-1.289 1.562-.183.677-.17 1.36.039 2.05.13.404.293.802.488 1.192.299.56.501 1.12.605 1.68a74.64 74.64 0 0 0 1.407-.762l.586-.312c.677-.365 1.36-.723 2.05-1.075a52.673 52.673 0 0 0 4.297-2.402c.078-.039.15-.084.215-.137a2.48 2.48 0 0 1 .43-.254.81.81 0 0 1 .468-.058Zm-11.542 6.816c-.586.326-1.146.69-1.68 1.094a5.673 5.673 0 0 0 1.68-1.094Z" fill="#393644"/><path d="M37.989 6.566c.95.066 1.621.417 2.012 1.055.39.625.599 1.367.625 2.227.026.859-.02 1.653-.137 2.382a67.979 67.979 0 0 1-1.992 8.555c-.052.182-.104.371-.156.567a782.612 782.612 0 0 1-1.504 5.195 402.346 402.346 0 0 0-2.871 10.098l.722.078c.195.052.313.156.352.312a.425.425 0 0 1-.059.41c-.09.13-.234.183-.43.157-.273-.052-.54-.098-.8-.137a141.866 141.866 0 0 0-1.309 5.273 100.52 100.52 0 0 0-1.738 9.883 32.883 32.883 0 0 0 .273 9.98c.13.574.293 1.127.489 1.66.09.274.084.528-.02.762a.957.957 0 0 1-1.328.45.954.954 0 0 1-.508-.606 19.603 19.603 0 0 1-.41-1.933 30.23 30.23 0 0 1-.176-6.602c.182-2.2.469-4.382.86-6.543a157.784 157.784 0 0 1 2.851-12.5 77.903 77.903 0 0 0-13.828-.957c-2.578 3.659-5.04 7.142-7.383 10.45-2.33 3.307-4.258 6.034-5.781 8.183l-2.266 3.242c-.273.326-.58.456-.918.39a1 1 0 0 1-.742-.527c-.17-.286-.143-.618.078-.996.117-.182 1.582-2.265 4.395-6.25 2.812-3.984 6.204-8.795 10.176-14.433a93.59 93.59 0 0 0-2.696.156 39.5 39.5 0 0 0-8.593 1.582c-.47.104-.82.013-1.055-.273a1.104 1.104 0 0 1-.215-.958c.091-.364.378-.592.86-.683 4.088-.417 8.183-.632 12.285-.645 1.575-2.252 3.157-4.505 4.746-6.758 4.153-5.885 7.721-10.944 10.703-15.175a3063.77 3063.77 0 0 0 4.707-6.68c.208-.26.468-.39.781-.39Zm-.82 14.454c.026-.092.058-.215.097-.372.222-.859.521-2.154.899-3.886a37.92 37.92 0 0 0 .761-5c.144-1.602-.026-2.637-.507-3.106-.39.534-2.435 3.425-6.133 8.672-3.698 5.248-7.982 11.335-12.852 18.262 4.519.065 9.024.37 13.516.918.56-2.07 1.126-4.134 1.7-6.192a443.977 443.977 0 0 0 2.519-9.296ZM87.286 4.085a475.859 475.859 0 0 0-5.02 10.312c-1.028 2.149-2.057 4.29-3.086 6.426a112.74 112.74 0 0 0-3.593 17.52c-.73 5.911-.983 11.009-.762 15.293.091 1.823.267 3.691.527 5.605.274 1.914.73 3.763 1.367 5.547a15.351 15.351 0 0 0 2.813 4.805c.182.221.228.443.137.664a.704.704 0 0 1-.45.469c-.22.09-.449.032-.683-.176a12.844 12.844 0 0 1-1.426-1.836c-1.77-3.047-2.903-6.888-3.398-11.524-.495-4.622-.495-9.596 0-14.922a117.67 117.67 0 0 1 2.558-15.644c-1.38 2.747-2.8 5.475-4.257 8.184a130.634 130.634 0 0 1-4.649 7.949c-.117.17-.24.345-.371.527a47.75 47.75 0 0 1-2.207 3.106c-.886 1.159-1.843 2.122-2.871 2.89-1.029.769-2.057 1.035-3.086.801-.495-.195-.82-.645-.977-1.348-.156-.69-.228-1.465-.214-2.324.026-.846.078-1.608.156-2.285.026-.325.045-.599.058-.82.313-2.904.703-5.788 1.172-8.653.274-1.823.567-3.652.88-5.488.416-2.396.793-4.792 1.132-7.187.352-2.41.592-4.831.722-7.266.014-.156.027-.326.04-.508.026-.3.039-.586.039-.86 0-.273-.046-.468-.137-.585-1.042-.43-2.129-.26-3.262.508-1.12.768-2.226 1.907-3.32 3.418a45.47 45.47 0 0 0-3.047 4.863 90.91 90.91 0 0 0-2.46 4.902c-.691 1.51-1.205 2.67-1.544 3.477a217.596 217.596 0 0 0-8.086 22.695c-.09.247-.254.39-.488.43a.682.682 0 0 1-.605-.137c-.183-.13-.261-.332-.235-.605l.117-.801c.078-.521.17-1.166.274-1.934l.351-2.304c.117-.756.215-1.4.293-1.934l.117-.781a304.81 304.81 0 0 0 1.036-7.715c.312-2.578.547-5.163.703-7.754.143-2.578.104-5.15-.117-7.715 0-.3.104-.508.312-.625a.75.75 0 0 1 .645-.058c.234.078.37.266.41.566a70.897 70.897 0 0 1-.196 12.207 203.84 203.84 0 0 1-1.582 12.227 271.21 271.21 0 0 1 6.367-16.075 127.766 127.766 0 0 1 3.575-7.52 52.466 52.466 0 0 1 4.394-7.109 15.868 15.868 0 0 1 1.836-2.09 7.124 7.124 0 0 1 2.344-1.503c.846-.326 1.745-.313 2.695.039l.137.097c.091.052.208.163.352.332.143.17.286.424.43.762.142.339.28.781.41 1.328.169 1.068.169 2.136 0 3.203a7.804 7.804 0 0 0-.06.547 147.537 147.537 0 0 1-1.62 10.488c-.065.352-.13.697-.196 1.036l-.566 3.086a205.1 205.1 0 0 0-1.855 11.152 25.525 25.525 0 0 0-.274 4.219c.013.221.04.442.078.664.04.221.104.41.195.566 1.107.052 2.383-.696 3.829-2.246 1.458-1.536 3.001-3.62 4.629-6.25 1.64-2.63 3.287-5.547 4.941-8.75a306.976 306.976 0 0 0 4.824-9.727c1.758-6.21 3.757-11.217 5.996-15.019a19.324 19.324 0 0 1 2.696-3.613.673.673 0 0 1 .488-.215c.182 0 .345.065.488.195.222.248.267.514.137.8Zm.076 27.754v-3.12h9.68v3.12h-9.68Zm49.397 12.265c.091-.533.325-.846.703-.937.39-.091.735-.007 1.035.254.299.273.358.664.176 1.172-1.394 2.33-3.262 4.661-5.606 6.992a50.307 50.307 0 0 1-7.832 6.367c-2.877 1.914-5.833 3.405-8.867 4.473-3.034 1.08-5.951 1.523-8.75 1.328a13.616 13.616 0 0 1-3.926-.938c-1.575-.638-2.695-1.653-3.359-3.047a11.401 11.401 0 0 1-1.094-4.492 27.11 27.11 0 0 1 .84-8.379 38.191 38.191 0 0 1 3.008-7.851 81.071 81.071 0 0 1 9.101-13.926 63.171 63.171 0 0 1 12.09-11.406 28.102 28.102 0 0 1 4.258-2.442c1.549-.716 3.138-.97 4.766-.761a3.693 3.693 0 0 1 1.66.781c.507.39.879.879 1.113 1.465.234.729.312 1.471.234 2.226-.065.756-.195 1.491-.39 2.207-1.446 5.495-4.004 10.437-7.676 14.825a.99.99 0 0 1-.664.351 1.073 1.073 0 0 1-.723-.234.973.973 0 0 1-.351-.703c-.013-.274.084-.521.293-.742a32.006 32.006 0 0 0 5.273-7.247 28.35 28.35 0 0 0 2.969-8.476 4.235 4.235 0 0 0-.176-1.758c-.404-.794-.983-1.263-1.738-1.406-.742-.143-1.53-.091-2.364.156-.833.234-1.575.527-2.226.879-2.552 1.432-5.02 3.255-7.402 5.469a71.233 71.233 0 0 0-6.7 7.148 109.224 109.224 0 0 0-5.605 7.422 73.484 73.484 0 0 0-4.414 7.5 36.718 36.718 0 0 0-3.028 8.125 23.312 23.312 0 0 0-.39 8.613c.143.82.41 1.589.801 2.305.403.73.963 1.315 1.679 1.758.756.39 1.537.69 2.344.898 2.37.547 4.766.56 7.188.04a29.016 29.016 0 0 0 7.05-2.5 48.908 48.908 0 0 0 6.289-3.75c1.133-.821 2.474-1.889 4.024-3.204a32.278 32.278 0 0 0 4.199-4.238c1.25-1.51 1.979-2.95 2.188-4.316Zm18.164-10c.104-.104.208-.143.312-.117a.296.296 0 0 1 .215.196c.039.09.006.188-.098.293l-.859.82a28.394 28.394 0 0 1-2.988 2.598 8.398 8.398 0 0 1-3.457 1.562c-1.355-.065-2.207-.599-2.559-1.602-.339-1.002-.352-2.122-.039-3.359a33.722 33.722 0 0 0-2.773 2.11 13.548 13.548 0 0 0-2.286 2.48 830.72 830.72 0 0 1-1.093 3.105c-.039.144-.118.235-.235.274a.372.372 0 0 1-.332 0c-.117-.052-.176-.15-.176-.293-.078-1.146.196-2.227.821-3.242a170.413 170.413 0 0 1 4.59-14.297.852.852 0 0 1-.469-.41c-.091-.196-.059-.424.097-.684a108.47 108.47 0 0 1 2.032-3.105c.182-.26.397-.385.644-.372.261 0 .469.098.625.293.17.183.202.417.098.704a272.429 272.429 0 0 0-5.664 15.332 27.148 27.148 0 0 1 2.695-2.5c.873-.716 1.751-1.4 2.637-2.051.234-.17.462-.215.683-.137a.762.762 0 0 1 .489.45c.091.208.058.436-.098.683a7.986 7.986 0 0 0-1.348 2.148c-.338.795-.436 1.595-.293 2.403.261.898.775 1.406 1.543 1.523.782.117 1.569-.065 2.364-.547a16.637 16.637 0 0 0 3.457-2.656 18.907 18.907 0 0 0 1.465-1.602Zm13.457 0c.039.157-.052.28-.274.372a3.5 3.5 0 0 1-.683.214 3.41 3.41 0 0 0-.43.137 16.33 16.33 0 0 1-3.965.527h-.195a36.935 36.935 0 0 1-1.797-.097 8.822 8.822 0 0 1-1.973-.371c.026.99-.15 1.953-.527 2.89-.365.938-.879 1.648-1.543 2.13-.781.56-1.497.715-2.149.468-.651-.247-1.067-.84-1.25-1.777-.195-1.72.228-3.288 1.27-4.707a5.664 5.664 0 0 1 1.973-1.621c.364-.144.657-.092.879.156.117-.117.267-.13.449-.04.443.508.722 1.14.84 1.895.651.26 1.38.43 2.187.508.807.065 1.419.098 1.836.098a14.008 14.008 0 0 0 5.078-.899.165.165 0 0 1 .156 0 .253.253 0 0 1 .118.117Zm-10.176-.351a2.86 2.86 0 0 0-.176-.566c0 .208.059.397.176.566Zm-2.676 5.84c1.003-.235 1.745-.853 2.227-1.856a5.933 5.933 0 0 0 .605-3.164c-.404-.221-.683-.52-.84-.898a4.53 4.53 0 0 0-1.758 1.601 5.847 5.847 0 0 0-.839 2.207.643.643 0 0 1-.02.157 5.882 5.882 0 0 0 0 1.172c.052.403.26.664.625.78Zm25.684-5.567c.143.117.11.332-.098.645a5.897 5.897 0 0 1-.84 1.016c-.351.364-.696.703-1.035 1.015-.339.3-.573.501-.703.606a12.668 12.668 0 0 1-3.399 1.953 13.15 13.15 0 0 1-3.75.8 18.022 18.022 0 0 1-3.75-.156.185.185 0 0 1-.156-.078c-.13.287-.254.58-.371.879-.13.469-.267.938-.41 1.406a.427.427 0 0 1-.195.293.583.583 0 0 1-.352.078c-.234-.104-.338-.286-.312-.547a2.95 2.95 0 0 1 .214-.82 3.24 3.24 0 0 0 .157-.586c.039-.156.084-.312.136-.468a203.218 203.218 0 0 1 4.512-15.215.665.665 0 0 1-.312-.391c-.039-.17-.007-.358.097-.566l1.817-3.38c.169-.286.384-.435.644-.448a.782.782 0 0 1 .664.273c.183.182.215.423.098.723a150.787 150.787 0 0 0-5.332 14.921 17.567 17.567 0 0 1 1.68-1.855c.546-.508 1.087-.99 1.621-1.445.208-.183.41-.358.605-.528.221-.195.443-.267.664-.215.235.053.41.176.528.372.117.195.117.423 0 .683a21.064 21.064 0 0 1-2.403 3.36 51.94 51.94 0 0 1-2.851 3.007c2.356.3 4.629.02 6.816-.84 2.188-.859 4.037-2.33 5.547-4.413a.359.359 0 0 1 .215-.137.354.354 0 0 1 .254.058Zm-10.801 1.758a14.577 14.577 0 0 0-2.344 2.95l.84-.997a32.354 32.354 0 0 0 1.504-1.953Zm23.105-1.816c.131.156.111.332-.058.527a3.84 3.84 0 0 1-.567.566c-.156.13-.267.235-.332.313-.494.443-1.315 1.029-2.461 1.758a31.027 31.027 0 0 1-3.769 2.031c-1.367.625-2.617 1.003-3.75 1.133-1.133.13-1.927-.176-2.383-.918-.43-1.094-.521-2.233-.273-3.418a7.584 7.584 0 0 1 1.406-3.184c.417-.494.918-.768 1.504-.82.586-.052.95.3 1.094 1.055.091.377-.02.794-.333 1.25a6.117 6.117 0 0 1-1.171 1.23c-.456.378-.853.638-1.192.781-.156.82-.202 1.517-.137 2.09.105.834.599 1.237 1.485 1.211.898-.026 1.94-.28 3.125-.761a29.513 29.513 0 0 0 3.34-1.622c1.028-.586 1.738-1.028 2.129-1.328a9.781 9.781 0 0 0 1.972-1.836c.052-.065.111-.097.176-.097a.244.244 0 0 1 .195.039Zm-10.8-.547c-.586.404-1.01 1.068-1.27 1.992.326-.3.625-.631.898-.996.274-.378.398-.71.372-.996Zm16.933 1.465a.676.676 0 0 0 .332.117c.143.013.293.02.449.02.17-.014.313-.007.43.019.13.013.202.072.215.176-.052.156-.202.267-.449.332a2.88 2.88 0 0 1-.762.058c-.273-.013-.488-.052-.645-.117-.416-.208-.709-.495-.878-.86a2.76 2.76 0 0 1-.235-1.23 18.53 18.53 0 0 0-3.418 3.907 30.482 30.482 0 0 0-2.441 4.59.436.436 0 0 1-.195.234.374.374 0 0 1-.333 0 .356.356 0 0 1-.195-.254.939.939 0 0 1-.058-.332 1.14 1.14 0 0 0-.039-.313c-.157-2.565.41-4.954 1.699-7.168.182-.26.403-.377.664-.351a.92.92 0 0 1 .644.351c.17.209.189.456.059.743a12.606 12.606 0 0 0-.82 2.07 18.077 18.077 0 0 1 5.175-5.957c.235-.156.463-.189.684-.098a.827.827 0 0 1 .488.469c.104.221.072.45-.097.684-.274.416-.495.918-.664 1.503-.17.586-.04 1.055.39 1.407Zm16.113-.801c.144.039.085.163-.175.371-.261.208-.625.45-1.094.723-.456.273-.899.534-1.328.78-.508.287-.84.483-.996.587l-2.617 1.406a198.429 198.429 0 0 0-3.243 1.758c-.039.364-.195.755-.468 1.172a4.222 4.222 0 0 1-1.465 1.289 6.728 6.728 0 0 1-1.856.664c-.078 0-.169.013-.273.039a1.77 1.77 0 0 1-.586.02c-.208-.014-.339-.118-.391-.313a3.29 3.29 0 0 1 1.25-1.21c.157-.092.3-.19.43-.294a57.29 57.29 0 0 1 1.894-1.172 1.432 1.432 0 0 0 0-.879c-.13-.234-.266-.475-.41-.722a6.285 6.285 0 0 1-.898-2.149c-.195-1.185-.104-2.11.273-2.773.378-.664.834-1.107 1.368-1.328.546-.235.976-.293 1.289-.176.325.104.325.345 0 .723-.678.351-1.107.872-1.289 1.562-.183.677-.17 1.36.039 2.05.13.404.293.802.488 1.192.299.56.501 1.12.605 1.68a74.64 74.64 0 0 0 1.407-.762l.586-.312c.677-.365 1.36-.723 2.05-1.075a52.673 52.673 0 0 0 4.297-2.402c.078-.039.15-.084.215-.137.143-.104.286-.188.43-.254a.81.81 0 0 1 .468-.058Zm-11.543 6.816c-.585.326-1.145.69-1.679 1.094a5.655 5.655 0 0 0 1.679-1.094ZM207.609 49.84c.031-.055.074-.078.129-.07a.179.179 0 0 1 .128.082c.032.039.032.086 0 .14a4.52 4.52 0 0 1-.785.856 13.713 13.713 0 0 1-1.078.797c-.773.53-1.519.94-2.238 1.23-.719.281-1.344.336-1.875.164-.524-.18-.891-.703-1.102-1.57a26.66 26.66 0 0 1-1.664 2.215c-.312.312-.633.402-.961.27-.336-.142-.468-.438-.398-.892a7.623 7.623 0 0 1 2.004-3.703c.328-.336.73-.605 1.207-.808.187-.07.34-.047.457.07a.538.538 0 0 1 .176.434c-.008.164-.106.285-.293.363a4.105 4.105 0 0 0-1.477 1.266 6.718 6.718 0 0 0-.914 1.757 30.946 30.946 0 0 0 1.793-2.578.42.42 0 0 1 .34-.21.493.493 0 0 1 .375.128c.109.094.16.219.152.375a3.257 3.257 0 0 0-.129 1.477c.078.5.375.851.891 1.054.773-.007 1.555-.226 2.344-.656a15.83 15.83 0 0 0 2.109-1.36c.32-.233.59-.51.809-.831Zm9.961-.012c.039-.047.082-.062.128-.047a.145.145 0 0 1 .106.07c.023.04.019.083-.012.13-.078.093-.16.175-.246.246a21.56 21.56 0 0 1-1.84 1.242c-.742.46-1.5.789-2.273.984-.766.188-1.422.059-1.969-.387-.203-.21-.34-.547-.41-1.007a4.911 4.911 0 0 1 0-1.36 17.614 17.614 0 0 0-2.145 1.934c-.679.719-1.214 1.453-1.605 2.203a.432.432 0 0 1-.363.164.5.5 0 0 1-.352-.164.446.446 0 0 1-.094-.398 18.42 18.42 0 0 1 .528-1.887c.078-.25.152-.5.222-.75v-.012a9.82 9.82 0 0 0 .223-.832c.055-.195.164-.309.328-.34a.505.505 0 0 1 .445.094c.133.094.18.242.141.445a22.591 22.591 0 0 1-.469 1.688c-.047.133-.09.261-.129.386.532-.492 1.051-1 1.559-1.523a30.912 30.912 0 0 1 2.145-2.039c.093-.078.179-.09.257-.035a.58.58 0 0 1 .211.27c.086.21.106.433.059.667a3.894 3.894 0 0 1-.188.703 5.105 5.105 0 0 0-.211.797c-.039.258.008.508.141.75.344.32.746.465 1.207.434a4.22 4.22 0 0 0 1.406-.352c.477-.203.891-.406 1.243-.609a5.45 5.45 0 0 0 .175-.105 7.283 7.283 0 0 0 1.782-1.36Zm5.73-7.254a.316.316 0 0 1 .164.2.368.368 0 0 1 0 .257 65.852 65.852 0 0 0-2.473 6.844 88.719 88.719 0 0 0-1.793 7.008.476.476 0 0 1-.21.304.51.51 0 0 1-.352.106.44.44 0 0 1-.293-.188.424.424 0 0 1-.059-.351 85.816 85.816 0 0 1 2.719-9.504c-.555 1-1.137 1.98-1.746 2.941a24.062 24.062 0 0 1-2.016 2.743 1.9 1.9 0 0 1-.878.574c-.344.094-.602-.055-.774-.446a1.652 1.652 0 0 1 .117-1.09c.164-.359.36-.695.586-1.007a5.811 5.811 0 0 1 1.172-1.184c.469-.36.981-.523 1.535-.492a.41.41 0 0 1 .235.105 68.017 68.017 0 0 0 1.98-3.632c.352-.68.707-1.352 1.067-2.016l.082-.152c.054-.102.113-.215.175-.34.071-.133.129-.246.176-.34l.082-.152a.402.402 0 0 1 .223-.188.352.352 0 0 1 .281 0Zm-6.094 9.774a22.254 22.254 0 0 0 1.512-2.121c-.5.117-.945.382-1.336.796a5.774 5.774 0 0 0-.961 1.278c-.164.414-.211.656-.14.726.07.063.199.02.386-.129.188-.148.367-.332.539-.55Zm22.172-2.532c.047-.039.09-.047.129-.023a.142.142 0 0 1 .094.094c.015.039.004.078-.035.117a6.994 6.994 0 0 1-3.739 1.734c-.179.024-.363.032-.55.024a.95.95 0 0 1-.516-.176 2.703 2.703 0 0 1-.691-.832 4.902 4.902 0 0 1-.106-.164 3.174 3.174 0 0 0-.269-.387.534.534 0 0 0-.317-.223c-.265.165-.492.391-.68.68-.046.07-.093.137-.14.2-.125.163-.246.331-.363.503-.204.305-.422.606-.657.903-.203.28-.41.418-.621.41-.211-.016-.375-.2-.492-.551a9.658 9.658 0 0 1-.211-2.508 77.561 77.561 0 0 0-1.758 2.403c-.258.351-.511.703-.761 1.054a1.434 1.434 0 0 1-.129.176 21.574 21.574 0 0 1-.68.914.548.548 0 0 1-.199.176.204.204 0 0 1-.211-.024c-.063-.047-.09-.113-.082-.199l.094-.668c.031-.234.066-.468.105-.703.07-.375.152-.75.246-1.125.031-.094.059-.191.082-.293.016-.078.035-.16.059-.246.109-.414.215-.797.316-1.148.07-.203.188-.317.352-.34a.517.517 0 0 1 .433.129c.125.109.16.27.106.48a63.589 63.589 0 0 1-.633 1.781c-.031.094-.063.184-.094.27-.078.25-.176.5-.293.75l-.023.07c.054-.093.109-.183.164-.27.711-1.148 1.422-2.32 2.133-3.515l.117-.21c.047-.079.098-.161.152-.247.211-.36.422-.7.633-1.02.125-.156.266-.23.422-.222a.51.51 0 0 1 .398.187c.11.117.153.27.129.457-.14.36-.226.852-.258 1.477a6.717 6.717 0 0 0 .106 1.676c.164-.172.32-.344.469-.516a9.68 9.68 0 0 1 .925-.96c.266-.25.528-.388.786-.411.257-.031.476.137.656.504.055.102.117.21.187.328.133.273.293.535.481.785.187.242.41.375.668.399a4.8 4.8 0 0 0 1.558-.235c.516-.164 1-.379 1.453-.644a5.425 5.425 0 0 0 1.055-.82Zm7.992.047c.024.094-.031.168-.164.223a2.083 2.083 0 0 1-.41.129 2.09 2.09 0 0 0-.258.082 9.795 9.795 0 0 1-2.379.316h-.117a22.205 22.205 0 0 1-1.078-.058 5.288 5.288 0 0 1-1.183-.223 4.298 4.298 0 0 1-.317 1.734c-.219.563-.527.989-.926 1.278-.468.336-.898.43-1.289.281-.39-.148-.64-.504-.75-1.066-.117-1.032.137-1.973.762-2.825.32-.414.715-.738 1.184-.972.218-.086.394-.055.527.093.07-.07.16-.078.269-.023.266.305.434.684.504 1.137.391.156.828.258 1.313.304.484.04.851.059 1.101.059a8.404 8.404 0 0 0 3.047-.539.1.1 0 0 1 .094 0 .15.15 0 0 1 .07.07Zm-6.105-.21a1.746 1.746 0 0 0-.106-.34c0 .124.036.238.106.34Zm-1.606 3.503c.602-.14 1.047-.511 1.336-1.113a3.56 3.56 0 0 0 .364-1.898 1.077 1.077 0 0 1-.504-.54 2.715 2.715 0 0 0-1.055.961 3.5 3.5 0 0 0-.504 1.325.377.377 0 0 1-.012.093 3.59 3.59 0 0 0 0 .703c.032.243.157.399.375.47Zm11.379-2.824c.055.04.121.063.2.07.085.008.175.012.269.012a.89.89 0 0 1 .258.012c.078.008.121.043.129.105-.031.094-.121.16-.27.2-.14.03-.293.042-.457.035a1.17 1.17 0 0 1-.386-.07 1.095 1.095 0 0 1-.528-.516 1.667 1.667 0 0 1-.14-.739c-.79.68-1.473 1.461-2.051 2.344a18.18 18.18 0 0 0-1.465 2.754.267.267 0 0 1-.117.14.223.223 0 0 1-.317-.152.572.572 0 0 1-.035-.199.71.71 0 0 0-.023-.187 7.465 7.465 0 0 1 1.019-4.301c.11-.156.242-.227.399-.211a.55.55 0 0 1 .386.21c.102.126.114.274.036.446-.204.406-.368.82-.493 1.242a10.853 10.853 0 0 1 3.106-3.574c.14-.094.277-.113.41-.059a.496.496 0 0 1 .293.282c.062.133.043.27-.059.41-.164.25-.296.55-.398.902-.102.352-.023.633.234.844Zm10.055-.55c.078.093.066.199-.035.316-.094.117-.207.23-.34.34-.094.078-.16.14-.199.187-.297.266-.789.617-1.477 1.055-.687.437-1.441.843-2.261 1.218-.821.375-1.571.602-2.25.68-.68.078-1.157-.105-1.43-.55a3.517 3.517 0 0 1-.164-2.051c.14-.72.422-1.356.844-1.91.25-.297.55-.462.902-.493.351-.031.57.18.656.633.055.227-.012.477-.199.75a3.686 3.686 0 0 1-.703.738c-.274.227-.512.383-.715.47-.094.491-.121.91-.082 1.253.062.5.359.742.891.727.539-.016 1.164-.168 1.875-.458a17.718 17.718 0 0 0 2.003-.972c.618-.352 1.043-.617 1.278-.797.445-.313.84-.68 1.183-1.102.032-.039.067-.058.106-.058a.147.147 0 0 1 .117.023Zm-6.48-.329c-.352.242-.606.64-.762 1.195.195-.18.375-.379.539-.597.164-.227.238-.426.223-.598Zm6.632 4.746a.542.542 0 0 1 .293-.398.526.526 0 0 1 .457-.024c.141.055.207.196.2.422a.538.538 0 0 1-.305.399.525.525 0 0 1-.457.023c-.141-.055-.203-.195-.188-.422Zm4.664 0a.542.542 0 0 1 .293-.398.526.526 0 0 1 .457-.024c.141.055.207.196.2.422a.538.538 0 0 1-.305.399.525.525 0 0 1-.457.023c-.141-.055-.203-.195-.188-.422Zm4.664 0a.544.544 0 0 1 .293-.398c.165-.078.317-.086.457-.024.141.055.208.196.2.422a.538.538 0 0 1-.305.399.525.525 0 0 1-.457.023c-.141-.055-.203-.195-.188-.422Z" fill="#393644"/><path d="M207.309 49.84c.031-.055.074-.078.129-.07a.179.179 0 0 1 .128.082c.032.039.032.086 0 .14a4.52 4.52 0 0 1-.785.856c-.297.242-.605.472-.926.691a4.703 4.703 0 0 1-.152.105c-.773.532-1.519.942-2.238 1.231-.719.281-1.344.336-1.875.164-.524-.18-.891-.703-1.102-1.57a26.66 26.66 0 0 1-1.664 2.215c-.312.312-.633.402-.961.27-.336-.142-.468-.438-.398-.892a7.623 7.623 0 0 1 2.004-3.703c.328-.336.73-.605 1.207-.808.187-.07.34-.047.457.07a.538.538 0 0 1 .176.434c-.008.164-.106.285-.293.363a4.105 4.105 0 0 0-1.477 1.266 6.718 6.718 0 0 0-.914 1.757 30.946 30.946 0 0 0 1.793-2.578.42.42 0 0 1 .34-.21.493.493 0 0 1 .375.128c.109.094.16.219.152.375a3.257 3.257 0 0 0-.129 1.477c.078.5.375.851.891 1.054.773-.007 1.555-.226 2.344-.656a15.83 15.83 0 0 0 2.109-1.36c.32-.233.59-.51.809-.831Zm9.961-.012c.039-.047.082-.062.128-.047a.147.147 0 0 1 .106.07c.023.04.019.083-.012.13-.078.093-.16.175-.246.246a21.56 21.56 0 0 1-1.84 1.242c-.742.46-1.5.789-2.273.984-.766.188-1.422.059-1.969-.387-.203-.21-.34-.547-.41-1.007a4.911 4.911 0 0 1 0-1.36 17.614 17.614 0 0 0-2.145 1.934c-.679.719-1.214 1.453-1.605 2.203a.432.432 0 0 1-.363.164.5.5 0 0 1-.352-.164.446.446 0 0 1-.094-.398 18.42 18.42 0 0 1 .528-1.887c.078-.25.152-.5.222-.75v-.012c.086-.273.16-.55.223-.832.055-.195.164-.309.328-.34a.505.505 0 0 1 .445.094c.133.094.18.242.141.445a22.591 22.591 0 0 1-.469 1.688c-.047.133-.09.261-.129.386.532-.492 1.051-1 1.559-1.523a30.688 30.688 0 0 1 2.145-2.039c.093-.078.179-.09.257-.035a.58.58 0 0 1 .211.27c.086.21.106.433.059.667a3.894 3.894 0 0 1-.188.703 5.105 5.105 0 0 0-.211.797c-.039.258.008.508.141.75.344.32.746.465 1.207.434a4.22 4.22 0 0 0 1.406-.352c.477-.203.891-.406 1.242-.609.055-.031.114-.066.176-.105a7.283 7.283 0 0 0 1.782-1.36Zm5.73-7.254a.316.316 0 0 1 .164.2.368.368 0 0 1 0 .257 65.852 65.852 0 0 0-2.473 6.844 88.719 88.719 0 0 0-1.793 7.008.476.476 0 0 1-.21.304.51.51 0 0 1-.352.106.44.44 0 0 1-.293-.188.424.424 0 0 1-.059-.351 85.816 85.816 0 0 1 2.719-9.504c-.555 1-1.137 1.98-1.746 2.941a24.183 24.183 0 0 1-2.016 2.743c-.25.28-.543.472-.879.574-.343.094-.601-.055-.773-.446a1.652 1.652 0 0 1 .117-1.09c.164-.359.36-.695.586-1.007.32-.438.711-.832 1.172-1.184.469-.36.981-.523 1.535-.492a.41.41 0 0 1 .235.105 68.017 68.017 0 0 0 1.98-3.632c.352-.68.707-1.352 1.066-2.016l.082-.152c.055-.102.114-.215.176-.34.071-.133.129-.246.176-.34l.082-.152a.402.402 0 0 1 .223-.188.352.352 0 0 1 .281 0Zm-6.094 9.774a22.254 22.254 0 0 0 1.512-2.121c-.5.117-.945.382-1.336.796a5.774 5.774 0 0 0-.961 1.278c-.164.414-.211.656-.141.726.071.063.2.02.387-.129.188-.148.367-.332.539-.55Zm22.172-2.532c.047-.039.09-.047.129-.023a.142.142 0 0 1 .094.094c.015.039.004.078-.035.117a6.994 6.994 0 0 1-3.739 1.734 3.211 3.211 0 0 1-.55.024.95.95 0 0 1-.516-.176 2.703 2.703 0 0 1-.691-.832 4.902 4.902 0 0 1-.106-.164 3.174 3.174 0 0 0-.269-.387.534.534 0 0 0-.317-.223c-.266.165-.492.391-.68.68-.046.07-.093.137-.14.2-.125.163-.246.331-.363.503-.204.305-.422.606-.657.903-.203.28-.41.418-.621.41-.211-.016-.375-.2-.492-.551a9.658 9.658 0 0 1-.211-2.508 75.952 75.952 0 0 0-1.758 2.403c-.258.351-.511.703-.761 1.054-.04.063-.083.121-.129.176a22.613 22.613 0 0 1-.68.914.548.548 0 0 1-.199.176.204.204 0 0 1-.211-.024c-.063-.047-.09-.113-.082-.199l.094-.668c.031-.234.066-.468.105-.703.07-.375.152-.75.246-1.125.031-.094.059-.191.082-.293.016-.078.035-.16.059-.246.109-.414.215-.797.316-1.148.07-.203.188-.317.352-.34a.517.517 0 0 1 .433.129c.125.109.16.27.106.48a66.957 66.957 0 0 1-.633 1.781c-.031.094-.063.184-.094.27-.078.25-.176.5-.293.75l-.023.07c.054-.093.109-.183.164-.27.711-1.148 1.422-2.32 2.133-3.515l.117-.21c.047-.079.097-.161.152-.247.211-.36.422-.7.633-1.02.125-.156.266-.23.422-.222a.51.51 0 0 1 .398.187c.11.117.153.27.129.457-.14.36-.226.852-.258 1.477a6.717 6.717 0 0 0 .106 1.676c.164-.172.32-.344.469-.516a9.68 9.68 0 0 1 .925-.96c.266-.25.528-.388.786-.411.257-.031.476.137.656.504.054.102.117.21.187.328.133.273.293.535.481.785.187.242.41.375.668.399.531.007 1.05-.07 1.558-.235.516-.164 1-.379 1.453-.644a5.425 5.425 0 0 0 1.055-.82Zm7.992.047c.024.094-.031.168-.164.223a2.083 2.083 0 0 1-.41.129 2.09 2.09 0 0 0-.258.082 9.795 9.795 0 0 1-2.379.316h-.117a22.205 22.205 0 0 1-1.078-.058 5.296 5.296 0 0 1-1.184-.223 4.28 4.28 0 0 1-.316 1.734c-.219.563-.527.989-.926 1.278-.468.336-.898.43-1.289.281-.39-.148-.64-.504-.75-1.066-.117-1.032.137-1.973.762-2.825.32-.414.715-.738 1.184-.972.218-.086.394-.055.527.093.07-.07.16-.078.269-.023.266.305.434.684.504 1.137.391.156.828.258 1.313.304.484.04.851.059 1.101.059a8.404 8.404 0 0 0 3.047-.539.1.1 0 0 1 .094 0 .15.15 0 0 1 .07.07Zm-6.105-.21a1.746 1.746 0 0 0-.106-.34c0 .124.036.238.106.34Zm-1.606 3.503c.602-.14 1.047-.511 1.336-1.113a3.56 3.56 0 0 0 .364-1.898 1.077 1.077 0 0 1-.504-.54 2.715 2.715 0 0 0-1.055.961 3.5 3.5 0 0 0-.504 1.325.377.377 0 0 1-.012.093 3.59 3.59 0 0 0 0 .703c.032.243.157.399.375.47Zm11.379-2.824c.055.04.121.063.2.07.085.008.175.012.269.012a.89.89 0 0 1 .258.012c.078.008.121.043.129.105-.032.094-.121.16-.27.2-.14.03-.293.042-.457.035a1.182 1.182 0 0 1-.387-.07 1.093 1.093 0 0 1-.527-.516 1.681 1.681 0 0 1-.141-.739 11.1 11.1 0 0 0-2.05 2.344 18.18 18.18 0 0 0-1.465 2.754.267.267 0 0 1-.117.14.225.225 0 0 1-.2 0 .215.215 0 0 1-.117-.152.572.572 0 0 1-.035-.199.71.71 0 0 0-.023-.187 7.465 7.465 0 0 1 1.019-4.301c.11-.156.242-.227.399-.211a.55.55 0 0 1 .386.21c.102.126.114.274.036.446-.204.406-.368.82-.493 1.242a10.853 10.853 0 0 1 3.106-3.574c.14-.094.277-.113.41-.059a.496.496 0 0 1 .293.282c.062.133.043.27-.059.41-.164.25-.297.55-.398.902-.102.352-.024.633.234.844Zm10.055-.55c.078.093.066.199-.035.316-.094.117-.207.23-.34.34-.094.078-.16.14-.199.187-.297.266-.789.617-1.477 1.055-.687.437-1.441.843-2.262 1.218-.82.375-1.57.602-2.25.68-.679.078-1.156-.105-1.429-.55a3.517 3.517 0 0 1-.164-2.051c.14-.72.422-1.356.843-1.91.25-.297.551-.462.903-.493.351-.031.57.18.656.633.055.227-.012.477-.199.75a3.686 3.686 0 0 1-.703.738c-.274.227-.512.383-.715.47-.094.491-.121.91-.082 1.253.062.5.359.742.89.727.54-.016 1.165-.168 1.875-.458a17.652 17.652 0 0 0 2.004-.972c.618-.352 1.043-.617 1.278-.797.445-.313.84-.68 1.183-1.102.032-.039.067-.058.106-.058a.147.147 0 0 1 .117.023Zm-6.481-.329c-.351.242-.605.64-.761 1.195.195-.18.375-.379.539-.597.164-.227.238-.426.222-.598Zm6.633 4.746a.542.542 0 0 1 .293-.398.526.526 0 0 1 .457-.024c.141.055.207.196.2.422a.54.54 0 0 1-.305.399.525.525 0 0 1-.457.023c-.141-.055-.203-.195-.188-.422Zm4.664 0a.542.542 0 0 1 .293-.398.526.526 0 0 1 .457-.024c.141.055.207.196.2.422a.538.538 0 0 1-.305.399.525.525 0 0 1-.457.023c-.141-.055-.203-.195-.188-.422Zm4.664 0a.542.542 0 0 1 .293-.398.526.526 0 0 1 .457-.024c.141.055.207.196.2.422a.538.538 0 0 1-.305.399.525.525 0 0 1-.457.023c-.141-.055-.203-.195-.188-.422Z" fill="#393644"/></svg>