<svg width="27" height="26" fill="none" xmlns="http://www.w3.org/2000/svg"><g clip-path="url(#a)" stroke="#333" stroke-width="2"><path d="M13.5 11.833a3.792 3.792 0 1 0 0-7.583 3.792 3.792 0 0 0 0 7.583Z" stroke-linecap="round" stroke-linejoin="round"/><path d="M13.5 25.083c6.627 0 12-5.373 12-12s-5.373-12-12-12-12 5.373-12 12 5.373 12 12 12Z" stroke-linejoin="round"/><path d="M3.5 20s1-3 4-4c4.295-1.432 8-1.5 13 0 2.58.774 3 4 3 4"/></g><defs><clipPath id="a"><path fill="#fff" transform="translate(.5)" d="M0 0h26v26H0z"/></clipPath></defs></svg>