<svg width="28" height="28" fill="none" xmlns="http://www.w3.org/2000/svg"><g clip-path="url(#a)"><path d="M28 0H0v28h28V0Z" fill="#fff" fill-opacity=".01"/><path d="M14 12.744a4.083 4.083 0 1 0 0-8.167 4.083 4.083 0 0 0 0 8.167Z" stroke="#333" stroke-width="2" stroke-linecap="round" stroke-linejoin="round"/><path d="M14 27.013c7.137 0 12.923-5.786 12.923-12.923 0-7.137-5.786-12.923-12.923-12.923-7.137 0-12.923 5.786-12.923 12.923 0 7.137 5.786 12.923 12.923 12.923Z" stroke="#333" stroke-width="2" stroke-linejoin="round"/><path d="M3.23 21.539s1.078-3.231 4.308-4.308c4.626-1.542 8.616-1.615 14 0 2.778.833 3.231 4.308 3.231 4.308" stroke="#333" stroke-width="2"/></g><defs><clipPath id="a"><path fill="#fff" d="M0 0h28v28H0z"/></clipPath></defs></svg>